<svg width="12" height="23" viewBox="0 0 12 23" fill="none" xmlns="http://www.w3.org/2000/svg">
<path d="M11.7707 12.0433L1.31835 22.2937C1.16974 22.4295 0.973191 22.5034 0.770101 22.4999C0.56701 22.4964 0.373238 22.4157 0.229608 22.2748C0.085979 22.134 0.00370544 21.9439 0.000122132 21.7448C-0.00346117 21.5456 0.0719255 21.3529 0.210399 21.2071L10.1075 11.5L0.210399 1.79287C0.0719255 1.64714 -0.00346117 1.45438 0.000122132 1.25522C0.00370544 1.05605 0.085979 0.866024 0.229608 0.72517C0.373238 0.584317 0.56701 0.503634 0.770101 0.50012C0.973191 0.496606 1.16974 0.570535 1.31835 0.706332L11.7707 10.9567C11.9175 11.1009 12 11.2963 12 11.5C12 11.7037 11.9175 11.8991 11.7707 12.0433Z" fill="white"/>
</svg>
