<svg width="20" height="12" viewBox="0 0 20 12" fill="none" xmlns="http://www.w3.org/2000/svg">
<path d="M19.8124 1.82622L10.4939 11.1448C10.3628 11.2756 10.1852 11.3492 10 11.3492C9.81479 11.3492 9.63716 11.2756 9.50612 11.1448L0.187574 1.82622C0.0641223 1.69373 -0.00308571 1.5185 0.000108885 1.33744C0.00330348 1.15638 0.0766514 0.983629 0.2047 0.85558C0.332749 0.727531 0.505501 0.654182 0.686562 0.650988C0.867622 0.647793 1.04285 0.715002 1.17534 0.838454L10 9.66195L18.8247 0.838454C18.9571 0.715002 19.1324 0.647793 19.3134 0.650988C19.4945 0.654182 19.6673 0.727531 19.7953 0.85558C19.9233 0.983629 19.9967 1.15638 19.9999 1.33744C20.0031 1.5185 19.9359 1.69373 19.8124 1.82622Z" fill="white"/>
</svg>
