<svg width="12" height="23" viewBox="0 0 12 23" fill="none" xmlns="http://www.w3.org/2000/svg">
<path d="M0.229262 10.9567L10.6816 0.706331C10.8303 0.570534 11.0268 0.496605 11.2299 0.50012C11.433 0.503633 11.6268 0.584316 11.7704 0.72517C11.914 0.866024 11.9963 1.05605 11.9999 1.25522C12.0035 1.45438 11.9281 1.64714 11.7896 1.79287L1.8925 11.5L11.7896 21.2071C11.9281 21.3529 12.0035 21.5456 11.9999 21.7448C11.9963 21.9439 11.914 22.134 11.7704 22.2748C11.6268 22.4157 11.433 22.4964 11.2299 22.4999C11.0268 22.5034 10.8303 22.4295 10.6816 22.2937L0.229262 12.0433C0.0824585 11.8991 9.53674e-07 11.7037 9.53674e-07 11.5C9.53674e-07 11.2963 0.0824585 11.1009 0.229262 10.9567Z" fill="white"/>
</svg>
