<svg width="20" height="20" viewBox="0 0 20 20" fill="none" xmlns="http://www.w3.org/2000/svg">
<path d="M13.8393 19.4118C13.8393 19.5678 13.7754 19.7174 13.6616 19.8277C13.5479 19.938 13.3936 20 13.2328 20H6.76383C6.60299 20 6.44873 19.938 6.335 19.8277C6.22126 19.7174 6.15737 19.5678 6.15737 19.4118C6.15737 19.2558 6.22126 19.1061 6.335 18.9958C6.44873 18.8855 6.60299 18.8235 6.76383 18.8235H13.2328C13.3936 18.8235 13.5479 18.8855 13.6616 18.9958C13.7754 19.1061 13.8393 19.2558 13.8393 19.4118ZM19.3086 16.1765C19.1859 16.3859 19.008 16.5599 18.793 16.6805C18.5781 16.8011 18.3339 16.864 18.0855 16.8627H1.91211C1.66336 16.8622 1.41916 16.7981 1.20409 16.6769C0.989026 16.5557 0.810703 16.3816 0.687094 16.1723C0.563485 15.9629 0.498957 15.7256 0.500013 15.4844C0.501069 15.2431 0.567671 15.0064 0.693109 14.798C1.2642 13.8431 2.11426 11.151 2.11426 7.64706C2.11426 5.61893 2.9449 3.67387 4.42345 2.23977C5.90199 0.80567 7.90733 0 9.99832 0C12.0893 0 14.0946 0.80567 15.5732 2.23977C17.0517 3.67387 17.8824 5.61893 17.8824 7.64706C17.8824 11.15 18.7334 13.8431 19.3055 14.798C19.4323 15.0068 19.4995 15.2446 19.5 15.4869C19.5005 15.7291 19.4345 15.9672 19.3086 16.1765ZM18.2564 15.3922C17.4912 14.1176 16.6694 11.1451 16.6694 7.64706C16.6694 5.93095 15.9666 4.28513 14.7155 3.07166C13.4644 1.85819 11.7676 1.17647 9.99832 1.17647C8.22902 1.17647 6.5322 1.85819 5.28112 3.07166C4.03004 4.28513 3.32719 5.93095 3.32719 7.64706C3.32719 11.1461 2.50442 14.1176 1.73926 15.3922C1.72152 15.422 1.71218 15.4558 1.71218 15.4902C1.71218 15.5246 1.72152 15.5584 1.73926 15.5882C1.75591 15.6183 1.78074 15.6433 1.81104 15.6606C1.84133 15.6779 1.87595 15.6868 1.91109 15.6863H18.0845C18.1197 15.6868 18.1543 15.6779 18.1846 15.6606C18.2149 15.6433 18.2397 15.6183 18.2564 15.5882C18.2741 15.5584 18.2834 15.5246 18.2834 15.4902C18.2834 15.4558 18.2741 15.422 18.2564 15.3922Z" fill="white"/>
</svg>
