<svg width="22" height="19" viewBox="0 0 22 19" fill="none" xmlns="http://www.w3.org/2000/svg">
<path d="M14.375 5.3125C14.8571 5.3125 15.3284 5.16954 15.7292 4.90171C16.13 4.63387 16.4425 4.25319 16.627 3.80779C16.8114 3.3624 16.8597 2.8723 16.7657 2.39947C16.6716 1.92664 16.4395 1.49232 16.0986 1.15143C15.7577 0.810538 15.3234 0.578388 14.8505 0.484337C14.3777 0.390285 13.8876 0.438556 13.4422 0.623045C12.9968 0.807533 12.6161 1.11995 12.3483 1.5208C12.0805 1.92164 11.9375 2.39291 11.9375 2.875C11.9375 3.52147 12.1943 4.14145 12.6514 4.59857C13.1085 5.05569 13.7285 5.3125 14.375 5.3125ZM14.375 1.5625C14.6346 1.5625 14.8883 1.63948 15.1042 1.7837C15.32 1.92792 15.4883 2.1329 15.5876 2.37273C15.6869 2.61256 15.7129 2.87646 15.6623 3.13106C15.6116 3.38566 15.4866 3.61952 15.3031 3.80308C15.1195 3.98664 14.8857 4.11164 14.6311 4.16228C14.3765 4.21293 14.1126 4.18693 13.8727 4.08759C13.6329 3.98825 13.4279 3.82003 13.2837 3.60419C13.1395 3.38835 13.0625 3.13459 13.0625 2.875C13.0625 2.5269 13.2008 2.19307 13.4469 1.94692C13.6931 1.70078 14.0269 1.5625 14.375 1.5625ZM17.75 10.9375C17.0454 10.9375 16.3566 11.1464 15.7708 11.5379C15.1849 11.9293 14.7283 12.4857 14.4587 13.1367C14.189 13.7877 14.1185 14.504 14.256 15.195C14.3934 15.8861 14.7327 16.5208 15.2309 17.0191C15.7292 17.5173 16.3639 17.8566 17.055 17.994C17.746 18.1315 18.4624 18.061 19.1133 17.7913C19.7643 17.5217 20.3207 17.0651 20.7121 16.4792C21.1036 15.8934 21.3125 15.2046 21.3125 14.5C21.3125 13.5552 20.9372 12.649 20.2691 11.9809C19.601 11.3128 18.6948 10.9375 17.75 10.9375ZM17.75 16.9375C17.2679 16.9375 16.7966 16.7945 16.3958 16.5267C15.995 16.2589 15.6825 15.8782 15.498 15.4328C15.3136 14.9874 15.2653 14.4973 15.3593 14.0245C15.4534 13.5516 15.6855 13.1173 16.0264 12.7764C16.3673 12.4355 16.8016 12.2034 17.2745 12.1093C17.7473 12.0153 18.2374 12.0636 18.6828 12.248C19.1282 12.4325 19.5089 12.745 19.7767 13.1458C20.0445 13.5466 20.1875 14.0179 20.1875 14.5C20.1875 14.8201 20.1245 15.1371 20.002 15.4328C19.8795 15.7285 19.6999 15.9972 19.4736 16.2236C19.2472 16.4499 18.9785 16.6295 18.6828 16.752C18.3871 16.8745 18.0701 16.9375 17.75 16.9375ZM4.25 10.9375C3.54541 10.9375 2.85663 11.1464 2.27078 11.5379C1.68493 11.9293 1.22832 12.4857 0.958681 13.1367C0.689044 13.7877 0.618494 14.504 0.755954 15.195C0.893414 15.8861 1.23271 16.5208 1.73093 17.0191C2.22916 17.5173 2.86393 17.8566 3.55499 17.994C4.24605 18.1315 4.96235 18.061 5.61331 17.7913C6.26427 17.5217 6.82066 17.0651 7.21211 16.4792C7.60356 15.8934 7.8125 15.2046 7.8125 14.5C7.8125 13.5552 7.43717 12.649 6.76907 11.9809C6.10097 11.3128 5.19484 10.9375 4.25 10.9375ZM4.25 16.9375C3.76791 16.9375 3.29664 16.7945 2.8958 16.5267C2.49495 16.2589 2.18253 15.8782 1.99805 15.4328C1.81356 14.9874 1.76529 14.4973 1.85934 14.0245C1.95339 13.5516 2.18554 13.1173 2.52643 12.7764C2.86732 12.4355 3.30164 12.2034 3.77447 12.1093C4.2473 12.0153 4.7374 12.0636 5.18279 12.248C5.62819 12.4325 6.00887 12.745 6.27671 13.1458C6.54454 13.5466 6.6875 14.0179 6.6875 14.5C6.6875 15.1465 6.43069 15.7665 5.97357 16.2236C5.51645 16.6807 4.89647 16.9375 4.25 16.9375ZM17 9.0625H13.25C13.1009 9.06237 12.9579 9.00302 12.8525 8.8975L10.25 6.29594L8.04594 8.5L11.3975 11.8525C11.503 11.9579 11.5624 12.1009 11.5625 12.25V16.75C11.5625 16.8992 11.5032 17.0423 11.3977 17.1478C11.2923 17.2532 11.1492 17.3125 11 17.3125C10.8508 17.3125 10.7077 17.2532 10.6023 17.1478C10.4968 17.0423 10.4375 16.8992 10.4375 16.75V12.4834L6.8525 8.8975C6.74716 8.79203 6.688 8.64907 6.688 8.5C6.688 8.35094 6.74716 8.20797 6.8525 8.1025L9.8525 5.1025C9.95797 4.99716 10.1009 4.938 10.25 4.938C10.3991 4.938 10.542 4.99716 10.6475 5.1025L13.4834 7.9375H17C17.1492 7.9375 17.2923 7.99677 17.3977 8.10225C17.5032 8.20774 17.5625 8.35082 17.5625 8.5C17.5625 8.64919 17.5032 8.79226 17.3977 8.89775C17.2923 9.00324 17.1492 9.0625 17 9.0625Z" fill="white"/>
</svg>
