<svg width="19" height="19" viewBox="0 0 19 19" fill="none" xmlns="http://www.w3.org/2000/svg">
<path d="M17.3261 1.4902H14.8367V0.558824C14.8367 0.410614 14.7762 0.268475 14.6685 0.163676C14.5607 0.0588758 14.4146 0 14.2622 0C14.1099 0 13.9638 0.0588758 13.856 0.163676C13.7483 0.268475 13.6878 0.410614 13.6878 0.558824V1.4902H5.64523V0.558824C5.64523 0.410614 5.5847 0.268475 5.47697 0.163676C5.36924 0.0588758 5.22312 0 5.07076 0C4.9184 0 4.77228 0.0588758 4.66455 0.163676C4.55682 0.268475 4.49629 0.410614 4.49629 0.558824V1.4902H2.00693C1.65143 1.4902 1.31048 1.62757 1.05911 1.87211C0.807727 2.11664 0.666504 2.4483 0.666504 2.79412V17.6961C0.666504 18.0419 0.807727 18.3736 1.05911 18.6181C1.31048 18.8626 1.65143 19 2.00693 19H17.3261C17.6816 19 18.0225 18.8626 18.2739 18.6181C18.5253 18.3736 18.6665 18.0419 18.6665 17.6961V2.79412C18.6665 2.4483 18.5253 2.11664 18.2739 1.87211C18.0225 1.62757 17.6816 1.4902 17.3261 1.4902ZM2.00693 2.60784H4.49629V3.53922C4.49629 3.68742 4.55682 3.82956 4.66455 3.93436C4.77228 4.03916 4.9184 4.09804 5.07076 4.09804C5.22312 4.09804 5.36924 4.03916 5.47697 3.93436C5.5847 3.82956 5.64523 3.68742 5.64523 3.53922V2.60784H13.6878V3.53922C13.6878 3.68742 13.7483 3.82956 13.856 3.93436C13.9638 4.03916 14.1099 4.09804 14.2622 4.09804C14.4146 4.09804 14.5607 4.03916 14.6685 3.93436C14.7762 3.82956 14.8367 3.68742 14.8367 3.53922V2.60784H17.3261C17.3769 2.60784 17.4256 2.62747 17.4615 2.6624C17.4974 2.69733 17.5176 2.74471 17.5176 2.79412V5.96078H1.81544V2.79412C1.81544 2.74471 1.83561 2.69733 1.87153 2.6624C1.90744 2.62747 1.95614 2.60784 2.00693 2.60784ZM17.3261 17.8824H2.00693C1.95614 17.8824 1.90744 17.8627 1.87153 17.8278C1.83561 17.7929 1.81544 17.7455 1.81544 17.6961V7.07843H17.5176V17.6961C17.5176 17.7455 17.4974 17.7929 17.4615 17.8278C17.4256 17.8627 17.3769 17.8824 17.3261 17.8824ZM10.624 10.6176C10.624 10.8019 10.5678 10.9819 10.4626 11.1351C10.3574 11.2883 10.2079 11.4076 10.0329 11.4781C9.85795 11.5486 9.66544 11.5671 9.47972 11.5311C9.29399 11.4952 9.12339 11.4065 8.98949 11.2762C8.85559 11.146 8.7644 10.98 8.72745 10.7993C8.69051 10.6187 8.70947 10.4314 8.78194 10.2612C8.85441 10.091 8.97712 9.94558 9.13457 9.84324C9.29203 9.7409 9.47714 9.68627 9.6665 9.68627C9.92043 9.68627 10.164 9.7844 10.3435 9.95907C10.5231 10.1337 10.624 10.3706 10.624 10.6176ZM14.8367 10.6176C14.8367 10.8019 14.7806 10.9819 14.6754 11.1351C14.5702 11.2883 14.4206 11.4076 14.2457 11.4781C14.0707 11.5486 13.8782 11.5671 13.6925 11.5311C13.5068 11.4952 13.3362 11.4065 13.2023 11.2762C13.0684 11.146 12.9772 10.98 12.9402 10.7993C12.9033 10.6187 12.9222 10.4314 12.9947 10.2612C13.0672 10.091 13.1899 9.94558 13.3473 9.84324C13.5048 9.7409 13.6899 9.68627 13.8793 9.68627C14.1332 9.68627 14.3767 9.7844 14.5563 9.95907C14.7358 10.1337 14.8367 10.3706 14.8367 10.6176ZM6.41118 14.3431C6.41118 14.5273 6.35503 14.7074 6.24983 14.8606C6.14462 15.0137 5.99509 15.1331 5.82014 15.2036C5.64519 15.2741 5.45268 15.2926 5.26695 15.2566C5.08122 15.2207 4.91062 15.132 4.77672 15.0017C4.64282 14.8715 4.55163 14.7055 4.51469 14.5248C4.47775 14.3442 4.49671 14.1569 4.56917 13.9867C4.64164 13.8165 4.76436 13.6711 4.92181 13.5687C5.07926 13.4664 5.26437 13.4118 5.45374 13.4118C5.70767 13.4118 5.9512 13.5099 6.13076 13.6846C6.31031 13.8592 6.41118 14.0961 6.41118 14.3431ZM10.624 14.3431C10.624 14.5273 10.5678 14.7074 10.4626 14.8606C10.3574 15.0137 10.2079 15.1331 10.0329 15.2036C9.85795 15.2741 9.66544 15.2926 9.47972 15.2566C9.29399 15.2207 9.12339 15.132 8.98949 15.0017C8.85559 14.8715 8.7644 14.7055 8.72745 14.5248C8.69051 14.3442 8.70947 14.1569 8.78194 13.9867C8.85441 13.8165 8.97712 13.6711 9.13457 13.5687C9.29203 13.4664 9.47714 13.4118 9.6665 13.4118C9.92043 13.4118 10.164 13.5099 10.3435 13.6846C10.5231 13.8592 10.624 14.0961 10.624 14.3431ZM14.8367 14.3431C14.8367 14.5273 14.7806 14.7074 14.6754 14.8606C14.5702 15.0137 14.4206 15.1331 14.2457 15.2036C14.0707 15.2741 13.8782 15.2926 13.6925 15.2566C13.5068 15.2207 13.3362 15.132 13.2023 15.0017C13.0684 14.8715 12.9772 14.7055 12.9402 14.5248C12.9033 14.3442 12.9222 14.1569 12.9947 13.9867C13.0672 13.8165 13.1899 13.6711 13.3473 13.5687C13.5048 13.4664 13.6899 13.4118 13.8793 13.4118C14.1332 13.4118 14.3767 13.5099 14.5563 13.6846C14.7358 13.8592 14.8367 14.0961 14.8367 14.3431Z" fill="white"/>
</svg>
