<svg width="24" height="16" viewBox="0 0 24 16" fill="none" xmlns="http://www.w3.org/2000/svg">
<path d="M23.25 7.4375H22.3125V4.25C22.3125 3.9019 22.1742 3.56806 21.9281 3.32192C21.6819 3.07578 21.3481 2.9375 21 2.9375H19.3125V2C19.3125 1.6519 19.1742 1.31806 18.9281 1.07192C18.6819 0.825781 18.3481 0.6875 18 0.6875H15.75C15.4019 0.6875 15.0681 0.825781 14.8219 1.07192C14.5758 1.31806 14.4375 1.6519 14.4375 2V7.4375H9.5625V2C9.5625 1.6519 9.42422 1.31806 9.17808 1.07192C8.93193 0.825781 8.5981 0.6875 8.25 0.6875H6C5.6519 0.6875 5.31806 0.825781 5.07192 1.07192C4.82578 1.31806 4.6875 1.6519 4.6875 2V2.9375H3C2.6519 2.9375 2.31806 3.07578 2.07192 3.32192C1.82578 3.56806 1.6875 3.9019 1.6875 4.25V7.4375H0.75C0.600816 7.4375 0.457742 7.49676 0.352252 7.60225C0.246763 7.70774 0.1875 7.85081 0.1875 8C0.1875 8.14918 0.246763 8.29226 0.352252 8.39775C0.457742 8.50324 0.600816 8.5625 0.75 8.5625H1.6875V11.75C1.6875 12.0981 1.82578 12.4319 2.07192 12.6781C2.31806 12.9242 2.6519 13.0625 3 13.0625H4.6875V14C4.6875 14.3481 4.82578 14.6819 5.07192 14.9281C5.31806 15.1742 5.6519 15.3125 6 15.3125H8.25C8.5981 15.3125 8.93193 15.1742 9.17808 14.9281C9.42422 14.6819 9.5625 14.3481 9.5625 14V8.5625H14.4375V14C14.4375 14.3481 14.5758 14.6819 14.8219 14.9281C15.0681 15.1742 15.4019 15.3125 15.75 15.3125H18C18.3481 15.3125 18.6819 15.1742 18.9281 14.9281C19.1742 14.6819 19.3125 14.3481 19.3125 14V13.0625H21C21.3481 13.0625 21.6819 12.9242 21.9281 12.6781C22.1742 12.4319 22.3125 12.0981 22.3125 11.75V8.5625H23.25C23.3992 8.5625 23.5423 8.50324 23.6477 8.39775C23.7532 8.29226 23.8125 8.14918 23.8125 8C23.8125 7.85081 23.7532 7.70774 23.6477 7.60225C23.5423 7.49676 23.3992 7.4375 23.25 7.4375ZM3 11.9375C2.95027 11.9375 2.90258 11.9177 2.86742 11.8826C2.83225 11.8474 2.8125 11.7997 2.8125 11.75V4.25C2.8125 4.20027 2.83225 4.15258 2.86742 4.11742C2.90258 4.08225 2.95027 4.0625 3 4.0625H4.6875V11.9375H3ZM8.4375 14C8.4375 14.0497 8.41774 14.0974 8.38258 14.1326C8.34742 14.1677 8.29973 14.1875 8.25 14.1875H6C5.95027 14.1875 5.90258 14.1677 5.86742 14.1326C5.83225 14.0974 5.8125 14.0497 5.8125 14V2C5.8125 1.95027 5.83225 1.90258 5.86742 1.86742C5.90258 1.83225 5.95027 1.8125 6 1.8125H8.25C8.29973 1.8125 8.34742 1.83225 8.38258 1.86742C8.41774 1.90258 8.4375 1.95027 8.4375 2V14ZM18.1875 14C18.1875 14.0497 18.1677 14.0974 18.1326 14.1326C18.0974 14.1677 18.0497 14.1875 18 14.1875H15.75C15.7003 14.1875 15.6526 14.1677 15.6174 14.1326C15.5823 14.0974 15.5625 14.0497 15.5625 14V2C15.5625 1.95027 15.5823 1.90258 15.6174 1.86742C15.6526 1.83225 15.7003 1.8125 15.75 1.8125H18C18.0497 1.8125 18.0974 1.83225 18.1326 1.86742C18.1677 1.90258 18.1875 1.95027 18.1875 2V14ZM21.1875 11.75C21.1875 11.7997 21.1677 11.8474 21.1326 11.8826C21.0974 11.9177 21.0497 11.9375 21 11.9375H19.3125V4.0625H21C21.0497 4.0625 21.0974 4.08225 21.1326 4.11742C21.1677 4.15258 21.1875 4.20027 21.1875 4.25V11.75Z" fill="white"/>
</svg>
