<svg width="22" height="15" viewBox="0 0 22 15" fill="none" xmlns="http://www.w3.org/2000/svg">
<path d="M15.1852 5.93023H13.0922C12.9534 5.93023 12.8203 5.8751 12.7222 5.77697C12.6241 5.67884 12.569 5.54575 12.569 5.40698C12.569 5.2682 12.6241 5.13511 12.7222 5.03698C12.8203 4.93885 12.9534 4.88372 13.0922 4.88372H15.1852C15.324 4.88372 15.4571 4.93885 15.5552 5.03698C15.6534 5.13511 15.7085 5.2682 15.7085 5.40698C15.7085 5.54575 15.6534 5.67884 15.5552 5.77697C15.4571 5.8751 15.324 5.93023 15.1852 5.93023ZM8.90617 4.88372H8.03408V4.01163C8.03408 3.87285 7.97895 3.73976 7.88082 3.64163C7.78269 3.5435 7.6496 3.48837 7.51082 3.48837C7.37205 3.48837 7.23895 3.5435 7.14082 3.64163C7.04269 3.73976 6.98757 3.87285 6.98757 4.01163V4.88372H6.11547C5.9767 4.88372 5.8436 4.93885 5.74547 5.03698C5.64734 5.13511 5.59222 5.2682 5.59222 5.40698C5.59222 5.54575 5.64734 5.67884 5.74547 5.77697C5.8436 5.8751 5.9767 5.93023 6.11547 5.93023H6.98757V6.80233C6.98757 6.9411 7.04269 7.07419 7.14082 7.17232C7.23895 7.27045 7.37205 7.32558 7.51082 7.32558C7.6496 7.32558 7.78269 7.27045 7.88082 7.17232C7.97895 7.07419 8.03408 6.9411 8.03408 6.80233V5.93023H8.90617C9.04495 5.93023 9.17804 5.8751 9.27617 5.77697C9.3743 5.67884 9.42943 5.54575 9.42943 5.40698C9.42943 5.2682 9.3743 5.13511 9.27617 5.03698C9.17804 4.93885 9.04495 4.88372 8.90617 4.88372ZM20.7527 13.7355C20.4794 14.1258 20.116 14.4446 19.6934 14.6647C19.2708 14.8848 18.8013 14.9998 18.3248 15C17.5399 14.9982 16.7876 14.6863 16.2318 14.1323L16.2091 14.1078L12.6893 10.1163H9.30908L5.79367 14.107L5.76663 14.1279C5.21205 14.6844 4.45927 14.9981 3.67361 15C3.24075 14.9997 2.81321 14.9047 2.42101 14.7215C2.0288 14.5384 1.68145 14.2716 1.40336 13.9399C1.12526 13.6082 0.923161 13.2196 0.811254 12.8015C0.699347 12.3833 0.680347 11.9457 0.755588 11.5195C0.755588 11.5195 0.755588 11.5142 0.755588 11.5108L2.18233 4.17558C2.38761 3.00631 2.99837 1.94678 3.90731 1.18313C4.81626 0.419483 5.96524 0.000574164 7.15239 0H14.8364C16.0205 0.0015055 17.1666 0.417877 18.0756 1.17674C18.9845 1.93561 19.5988 2.98898 19.8117 4.15378C19.8117 4.15988 19.8117 4.16424 19.8117 4.17035L21.2428 11.5116C21.2428 11.5116 21.2428 11.5177 21.2428 11.5212C21.3116 11.9044 21.3037 12.2974 21.2196 12.6774C21.1354 13.0575 20.9767 13.4171 20.7527 13.7355ZM14.8364 9.06977C15.9004 9.06977 16.9207 8.64711 17.6731 7.89479C18.4254 7.14246 18.848 6.12209 18.848 5.05814C18.848 3.99419 18.4254 2.97382 17.6731 2.22149C16.9207 1.46916 15.9004 1.04651 14.8364 1.04651H7.15239C6.21075 1.04723 5.2995 1.37989 4.57887 1.986C3.85823 2.59211 3.37434 3.43288 3.21227 4.36047C3.21187 4.36336 3.21187 4.36629 3.21227 4.36919L1.78379 11.7061C1.71406 12.1065 1.77328 12.5187 1.95291 12.8833C2.13255 13.2478 2.42331 13.5459 2.78329 13.7346C3.14326 13.9233 3.55385 13.9928 3.95586 13.933C4.35787 13.8733 4.73054 13.6875 5.02012 13.4023L8.68291 9.2468C8.73227 9.19162 8.79277 9.14754 8.86042 9.11748C8.92807 9.08741 9.00133 9.07204 9.07536 9.07238L14.8364 9.06977ZM20.2146 11.7061L19.3608 7.31512C18.9409 8.15591 18.2953 8.86326 17.4963 9.35798C16.6972 9.85269 15.7762 10.1153 14.8364 10.1163H14.0838L16.9783 13.4023C17.2678 13.6875 17.6405 13.8733 18.0425 13.933C18.4445 13.9928 18.8551 13.9233 19.2151 13.7346C19.5751 13.5459 19.8658 13.2478 20.0455 12.8833C20.2251 12.5187 20.2843 12.1065 20.2146 11.7061Z" fill="white"/>
</svg>
