<svg width="19" height="19" viewBox="0 0 19 19" fill="none" xmlns="http://www.w3.org/2000/svg">
<path d="M17.6564 8.15248L9.9755 0.397423C9.85069 0.271387 9.7025 0.171408 9.53941 0.103197C9.37633 0.034986 9.20153 -0.00012207 9.025 -0.00012207C8.84847 -0.00012207 8.67367 0.034986 8.51058 0.103197C8.3475 0.171408 8.19931 0.271387 8.07449 0.397423L0.393647 8.15248C0.268493 8.27826 0.169267 8.42783 0.101701 8.59255C0.0341355 8.75728 -0.0004293 8.93388 4.02434e-06 9.11217V18.4182C4.02434e-06 18.5725 0.0606962 18.7204 0.168729 18.8295C0.276762 18.9386 0.423286 18.9999 0.576068 18.9999H6.72075C6.87353 18.9999 7.02005 18.9386 7.12808 18.8295C7.23612 18.7204 7.29681 18.5725 7.29681 18.4182V12.7958H10.7532V18.4182C10.7532 18.5725 10.8139 18.7204 10.9219 18.8295C11.0299 18.9386 11.1765 18.9999 11.3293 18.9999H17.4739C17.6267 18.9999 17.7732 18.9386 17.8813 18.8295C17.9893 18.7204 18.05 18.5725 18.05 18.4182V9.11217C18.0504 8.93388 18.0159 8.75728 17.9483 8.59255C17.8807 8.42783 17.7815 8.27826 17.6564 8.15248ZM16.8979 17.8366H11.9053V12.2142C11.9053 12.0599 11.8446 11.912 11.7366 11.8029C11.6286 11.6938 11.482 11.6326 11.3293 11.6326H6.72075C6.56796 11.6326 6.42144 11.6938 6.31341 11.8029C6.20537 11.912 6.14468 12.0599 6.14468 12.2142V17.8366H1.15213V9.11217C1.15199 9.08666 1.15683 9.06137 1.16638 9.03774C1.17594 9.01412 1.19002 8.99264 1.20782 8.97452L8.88867 1.21946C8.90652 1.20129 8.92775 1.18686 8.95115 1.17702C8.97455 1.16718 8.99965 1.16211 9.025 1.16211C9.05035 1.16211 9.07545 1.16718 9.09885 1.17702C9.12225 1.18686 9.14348 1.20129 9.16133 1.21946L16.8422 8.97452C16.86 8.99264 16.8741 9.01412 16.8836 9.03774C16.8932 9.06137 16.898 9.08666 16.8979 9.11217V17.8366Z" fill="white"/>
</svg>
