<svg width="20" height="24" viewBox="0 0 20 24" fill="none" xmlns="http://www.w3.org/2000/svg">
<path d="M15.9563 15.2038C15.7353 16.4388 15.1412 17.5765 14.254 18.4636C13.3669 19.3508 12.2292 19.9449 10.9942 20.1659C10.9576 20.1714 10.9207 20.1744 10.8837 20.1747C10.7171 20.1754 10.5563 20.1132 10.4334 20.0007C10.3105 19.8881 10.2346 19.7334 10.2206 19.5673C10.2067 19.4013 10.2558 19.236 10.3582 19.1046C10.4607 18.9731 10.6088 18.8851 10.7733 18.858C12.6931 18.5354 14.3225 16.9049 14.6484 14.9828C14.6777 14.8094 14.7747 14.6547 14.918 14.5528C14.989 14.5023 15.0692 14.4663 15.1541 14.4469C15.239 14.4274 15.3269 14.4248 15.4128 14.4394C15.4987 14.4539 15.5808 14.4851 15.6546 14.5314C15.7284 14.5777 15.7924 14.638 15.8429 14.709C15.8933 14.78 15.9293 14.8602 15.9488 14.9451C15.9682 15.03 15.9708 15.1179 15.9563 15.2038ZM19.5 14.2096C19.5 16.7291 18.4991 19.1455 16.7175 20.9271C14.9359 22.7087 12.5196 23.7096 10 23.7096C7.48044 23.7096 5.06408 22.7087 3.28249 20.9271C1.50089 19.1455 0.5 16.7291 0.5 14.2096C0.5 11.1751 1.69855 8.06662 4.0625 4.97028C4.11927 4.89488 4.19148 4.83246 4.27432 4.78722C4.35715 4.74198 4.44869 4.71495 4.54282 4.70794C4.63694 4.70093 4.73148 4.71411 4.8201 4.74659C4.90872 4.77907 4.98938 4.8301 5.05669 4.89627L7.96634 7.71976L10.517 0.726214C10.5534 0.626417 10.6132 0.536831 10.6915 0.465004C10.7698 0.393178 10.8641 0.341214 10.9667 0.313493C11.0692 0.285772 11.1769 0.283105 11.2807 0.305717C11.3845 0.328329 11.4814 0.375558 11.5631 0.443423C13.9458 2.42627 19.5 7.73633 19.5 14.2096ZM18.1744 14.2096C18.1744 8.86307 13.9049 4.2854 11.4283 2.08052L8.85558 9.13482C8.81773 9.23879 8.75446 9.33163 8.67153 9.40487C8.5886 9.47812 8.48865 9.52943 8.3808 9.55414C8.27295 9.57885 8.16063 9.57617 8.05409 9.54634C7.94754 9.51651 7.85015 9.46048 7.77081 9.38336L4.67779 6.3765C2.78331 9.03209 1.82558 11.6689 1.82558 14.2096C1.82558 16.3776 2.68681 18.4568 4.21981 19.9898C5.75281 21.5228 7.83201 22.384 10 22.384C12.168 22.384 14.2472 21.5228 15.7802 19.9898C17.3132 18.4568 18.1744 16.3776 18.1744 14.2096Z" fill="white"/>
</svg>
