<svg width="19" height="21" viewBox="0 0 19 21" fill="none" xmlns="http://www.w3.org/2000/svg">
<path d="M12.2499 6.0625C12.8061 6.0625 13.3499 5.89755 13.8124 5.58851C14.2749 5.27947 14.6354 4.84022 14.8483 4.3263C15.0612 3.81238 15.1169 3.24688 15.0083 2.70131C14.8998 2.15574 14.632 1.6546 14.2386 1.26126C13.8453 0.867928 13.3441 0.600064 12.7986 0.491543C12.253 0.383022 11.6875 0.438719 11.1736 0.65159C10.6597 0.864462 10.2204 1.22495 9.91137 1.68746C9.60233 2.14997 9.43738 2.69374 9.43738 3.25C9.43738 3.99592 9.73369 4.71129 10.2611 5.23874C10.7886 5.76619 11.504 6.0625 12.2499 6.0625ZM12.2499 1.5625C12.5836 1.5625 12.9099 1.66147 13.1874 1.8469C13.4649 2.03232 13.6812 2.29587 13.8089 2.60422C13.9366 2.91257 13.9701 3.25187 13.905 3.57922C13.8398 3.90656 13.6791 4.20724 13.4431 4.44324C13.2071 4.67924 12.9064 4.83996 12.5791 4.90508C12.2517 4.97019 11.9124 4.93677 11.6041 4.80905C11.2957 4.68132 11.0322 4.46503 10.8468 4.18753C10.6613 3.91002 10.5624 3.58376 10.5624 3.25C10.5624 2.80245 10.7402 2.37323 11.0566 2.05676C11.3731 1.74029 11.8023 1.5625 12.2499 1.5625ZM18.4833 11.0181C18.428 11.0434 17.8111 11.3116 16.7133 11.3116C15.4139 11.3116 13.4414 10.9366 10.9261 9.34281C10.5231 10.5461 9.97436 11.6956 9.29207 12.7656C10.1761 13.0263 11.3546 13.4894 12.4036 14.29C14.168 15.6297 15.0624 17.4672 15.0624 19.75C15.0624 19.8992 15.0031 20.0423 14.8976 20.1477C14.7921 20.2532 14.6491 20.3125 14.4999 20.3125C14.3507 20.3125 14.2076 20.2532 14.1021 20.1477C13.9966 20.0423 13.9374 19.8992 13.9374 19.75C13.9374 15.625 10.4471 14.2019 8.60207 13.7397C8.52707 13.8366 8.45019 13.9331 8.37144 14.0294C6.56675 16.2147 4.30832 17.3528 1.79863 17.3528C1.51313 17.3537 1.22777 17.3403 0.943628 17.3125C0.869759 17.3051 0.798069 17.2833 0.73265 17.2482C0.667231 17.2131 0.609365 17.1654 0.562355 17.108C0.467415 16.9919 0.422459 16.8429 0.437378 16.6938C0.452296 16.5446 0.525867 16.4074 0.641905 16.3125C0.757943 16.2175 0.906943 16.1726 1.05613 16.1875C3.55269 16.4369 5.72207 15.4694 7.50332 13.3103C8.73707 11.8159 9.56019 9.98125 9.94832 8.7025C6.1505 6.40375 3.7055 8.25438 3.59957 8.33781C3.48262 8.42707 3.33537 8.46695 3.18936 8.44892C3.04336 8.4309 2.91023 8.35639 2.81851 8.24137C2.72679 8.12635 2.68378 7.97998 2.6987 7.83362C2.71362 7.68727 2.78527 7.55259 2.89832 7.45844C2.933 7.43031 3.77863 6.76188 5.21957 6.52094C6.51894 6.30438 8.58707 6.39906 11.0658 8.08375C15.4852 11.0838 17.9921 10.0028 18.0164 9.99156C18.0837 9.96079 18.1563 9.94355 18.2302 9.94084C18.304 9.93813 18.3777 9.94999 18.447 9.97576C18.5163 10.0015 18.5799 10.0407 18.634 10.091C18.6882 10.1413 18.7319 10.2018 18.7627 10.2691C18.7935 10.3363 18.8107 10.4089 18.8134 10.4828C18.8161 10.5567 18.8043 10.6304 18.7785 10.6997C18.7527 10.769 18.7136 10.8325 18.6632 10.8867C18.6129 10.9408 18.5524 10.9845 18.4852 11.0153L18.4833 11.0181Z" fill="white"/>
</svg>
