<svg width="20" height="19" viewBox="0 0 20 19" fill="none" xmlns="http://www.w3.org/2000/svg">
<path d="M10.0009 5.21574C9.17377 5.21574 8.3652 5.46701 7.67745 5.93778C6.98971 6.40854 6.45368 7.07766 6.13715 7.86051C5.82061 8.64336 5.73779 9.50479 5.89916 10.3359C6.06053 11.1669 6.45884 11.9303 7.04371 12.5295C7.62859 13.1287 8.37377 13.5367 9.18502 13.702C9.99627 13.8673 10.8371 13.7825 11.6013 13.4582C12.3655 13.1339 13.0187 12.5848 13.4782 11.8803C13.9377 11.1757 14.183 10.3474 14.183 9.50004C14.1816 8.36422 13.7405 7.27536 12.9565 6.47222C12.1725 5.66908 11.1096 5.21722 10.0009 5.21574ZM10.0009 12.6667C9.38954 12.6667 8.7919 12.481 8.28357 12.133C7.77524 11.7851 7.37904 11.2905 7.14508 10.7119C6.91113 10.1332 6.84991 9.49652 6.96918 8.88225C7.08845 8.26798 7.38285 7.70374 7.81516 7.26087C8.24746 6.81801 8.79824 6.51642 9.39786 6.39423C9.99748 6.27204 10.619 6.33475 11.1838 6.57443C11.7487 6.81411 12.2314 7.21999 12.5711 7.74074C12.9107 8.26149 13.092 8.87373 13.092 9.50004C13.092 10.3399 12.7664 11.1453 12.1867 11.7392C11.607 12.3331 10.8207 12.6667 10.0009 12.6667ZM19.8198 7.60004C19.8039 7.52217 19.7721 7.44865 19.7263 7.3844C19.6805 7.32016 19.6219 7.26666 19.5543 7.2275L16.7868 5.60878L16.7486 5.54265L16.7377 2.34713C16.7377 2.26641 16.7207 2.18665 16.6877 2.11334C16.6548 2.04002 16.6067 1.97489 16.5468 1.92242C15.5803 1.08519 14.4675 0.443315 13.2675 0.0308134C13.1954 0.00596506 13.1189 -0.00314283 13.0431 0.0040753C12.9674 0.0112934 12.8939 0.0346779 12.8275 0.0727251L10.0427 1.6635H9.95181L7.17435 0.0708623C7.10761 0.0327028 7.03379 0.00933595 6.95768 0.00227629C6.88156 -0.00478337 6.80484 0.00462172 6.7325 0.0298821C5.53262 0.443586 4.42039 1.08709 3.45501 1.92615C3.39492 1.97834 3.34657 2.04324 3.3133 2.11639C3.28003 2.18955 3.26262 2.26922 3.26227 2.34992L3.24772 5.54824C3.23499 5.56966 3.22226 5.59201 3.21045 5.61437L0.44662 7.2247C0.378698 7.26447 0.319919 7.31873 0.274271 7.38381C0.228623 7.4489 0.197174 7.52328 0.182057 7.60191C-0.0606857 8.85574 -0.0606857 10.1462 0.182057 11.4C0.197876 11.4779 0.229741 11.5514 0.275522 11.6157C0.321304 11.6799 0.379946 11.7334 0.44753 11.7726L3.21317 13.3866L3.25136 13.4528L3.26227 16.6483C3.26182 16.7299 3.27885 16.8107 3.31215 16.8849C3.34545 16.959 3.39421 17.0249 3.45501 17.0777C4.42156 17.9149 5.53432 18.5568 6.73432 18.9693C6.80646 18.9941 6.88288 19.0032 6.95866 18.996C7.03445 18.9888 7.10792 18.9654 7.17435 18.9273L9.95727 17.3366H10.0482L12.8266 18.9292C12.9078 18.9752 12.9991 18.9996 13.092 19C13.1517 19.0003 13.2111 18.9902 13.2675 18.9702C14.4658 18.556 15.5764 17.9125 16.5404 17.0739C16.6005 17.0217 16.6489 16.9568 16.6821 16.8837C16.7154 16.8105 16.7328 16.7309 16.7332 16.6502L16.7477 13.4518C16.7605 13.4304 16.7732 13.4081 16.785 13.3857L19.5506 11.7754C19.6187 11.7357 19.6777 11.6815 19.7235 11.6164C19.7693 11.5513 19.8009 11.4769 19.8161 11.3982C20.0601 10.1446 20.0613 8.85412 19.8198 7.60004ZM18.797 10.9334L16.1213 12.4897C16.0346 12.5406 15.9629 12.6146 15.914 12.7039C15.8604 12.7971 15.804 12.9005 15.7449 12.9964C15.6911 13.0847 15.6625 13.1866 15.6622 13.2907L15.6477 16.3838C14.8954 17.0012 14.0504 17.4897 13.1457 17.8302L10.4555 16.2879C10.3741 16.241 10.2824 16.2163 10.1891 16.2161H10.1764C10.0636 16.2161 9.94909 16.2161 9.83635 16.2161C9.73881 16.2137 9.64242 16.2382 9.55724 16.2869L6.85978 17.8293C5.95386 17.4905 5.10765 17.0032 4.35416 16.3866L4.34325 13.2972C4.34296 13.1931 4.31431 13.0912 4.26052 13.0029C4.20233 12.9098 4.14505 12.8092 4.09141 12.7105C4.04304 12.6211 3.97166 12.547 3.88504 12.4962L1.2094 10.9343C1.05386 9.98509 1.05386 9.01591 1.2094 8.06666L3.88049 6.51034C3.96859 6.46003 4.04154 6.38594 4.09141 6.29613C4.14505 6.20299 4.20142 6.09961 4.26052 6.00368C4.31431 5.91538 4.34296 5.81345 4.34325 5.70937L4.3578 2.61629C5.10895 1.99923 5.95264 1.51078 6.85615 1.16988L9.54633 2.71222C9.63119 2.7618 9.7278 2.78631 9.82544 2.78301C9.93818 2.78301 10.0527 2.78301 10.1655 2.78301C10.263 2.78541 10.3594 2.76096 10.4446 2.71222L13.1402 1.16988C14.0461 1.50868 14.8923 1.99592 15.6458 2.61257L15.6567 5.70192C15.657 5.806 15.6857 5.90793 15.7395 5.99623C15.7977 6.08937 15.8549 6.18995 15.9086 6.28868C15.957 6.37807 16.0283 6.45217 16.115 6.50289L18.7924 8.06573C18.9489 9.01483 18.9498 9.984 18.7951 10.9334H18.797Z" fill="white"/>
</svg>
